<svg xmlns="http://www.w3.org/2000/svg" viewBox="0 0 532.35 233.02"><defs><style>.cls-1{fill:#42210b;}.cls-2{fill:#6c78af;}.cls-3{fill:#dd0031;}.cls-4{fill:#c3002f;}.cls-5{fill:#34487f;}.cls-6,.cls-7{fill:none;stroke:#000;stroke-linecap:round;stroke-linejoin:round;}.cls-6{stroke-width:4px;}.cls-7{stroke-width:3px;}</style></defs><title>svg export</title><g id="sails"><g id="g5"><path class="cls-1" d="M366.14,149.67c4.54,3.08,15.25,10.18,26.83,16.6a20.26,20.26,0,0,1,12.85-13.07L331.65,31.86a1.73,1.73,0,0,1-.26-1.06l.18-2.64-.22-.45a.59.59,0,0,0-.45-.22l-.44.11c-.23.22-.34.34-.34.56l-9.46,171.23a1.79,1.79,0,0,0,1.53-1.68l8.73-159.3a1.8,1.8,0,0,1,3.34-.84l7.88,12.94H342a204.09,204.09,0,0,1,10.62,65.8c10.89,0,18.94,9,19.41,19.5A18.12,18.12,0,0,1,366.14,149.67Z" transform="translate(-15.75 -27.49)"/><path id="path18" class="cls-2" d="M326.6,95.35c8.65,24.33,17.54,53.31,14.43,101.72l45.51-5.57Z" transform="translate(-15.75 -27.49)"/><path id="path22" class="cls-2" d="M320.66,199.39l10.26-161c-39,55.17-50,107.58-84.81,160.43l65.1-3.67" transform="translate(-15.75 -27.49)"/><path id="path24" class="cls-2" d="M256.24,63.43l-.44-.22-.45.11-.22.55-9,144.66,1.34-.12,9-144.54-.22-.44" transform="translate(-15.75 -27.49)"/><path id="path26" class="cls-2" d="M249.19,194.1h0L258.76,53,208.35,198.44l40.84-4.34" transform="translate(-15.75 -27.49)"/></g></g><g id="ang"><polygon class="cls-3" points="291.74 107.82 325.69 109.59 310.85 67.86 291.74 107.82"/><path class="cls-3" d="M330,30.94l-94.7,28.3L243,182.91l76.51,47.76,81.07-39.53L421.21,69Zm28.29,154.29-10.16-29.78-49.33-2.57-13.21,28.55-21.67-1.14L328.81,53l51.11,133.35Z" transform="translate(-15.75 -27.49)"/><polygon class="cls-4" points="314.21 3.45 313.06 25.52 313.06 25.52 364.17 158.87 342.5 157.74 332.34 127.97 307.77 126.68 303.78 203.18 384.85 163.65 405.45 41.46 314.21 3.45"/><polygon class="cls-4" points="310.85 67.86 308.71 108.71 325.69 109.59 310.85 67.86"/></g><g id="ship"><path id="path20" class="cls-5" d="M533.09,168.56q11.67-1.38,15-5L151.44,211.94h-.19c.19,16.49,7.6,29.47,22.06,38.74A47,47,0,0,0,185,256.79,47.49,47.49,0,0,1,197,247h.18Q259.5,209.15,382,235.11l.93.18c8.9,1.85,17.79,4.08,26.14,6.67a7.22,7.22,0,0,0,6.11-1.85,29.71,29.71,0,0,1,11.68-5v-.19c13.16-23.35,30.95-40.59,53.2-51.9,15.38-7.6,33.18-12.6,53-14.46" transform="translate(-15.75 -27.49)"/></g><g id="text"><g id="g13"><path id="path42" class="cls-6" d="M306,64.77c-5.46-3.34-11.13-2.45-17,2.78-5.12-5.23-10.46-6.12-16-2.78" transform="translate(-15.75 -27.49)"/><path id="path44" class="cls-7" d="M293.63,46.07c-5.57-3.34-11-2-16.58,4-5.46-6-11-7.35-16.58-4" transform="translate(-15.75 -27.49)"/></g><g id="g33"><path id="path66" class="cls-5" d="M21.91,220.29H36.65q6.66,0,9.77,3.78t2,10.55a17.79,17.79,0,0,1-1.6,5.1A16.36,16.36,0,0,1,43.79,244a13.24,13.24,0,0,1-5,3.31,21.66,21.66,0,0,1-7.13,1H25.06l-1.64,10.12H15.75l6.16-38.08Zm6.69,6-2.58,16h4.67c3.09,0,5.38-.64,6.87-1.9S40,237,40.51,234.08s.19-4.84-.8-6-2.94-1.76-5.85-1.76H28.6" transform="translate(-15.75 -27.49)"/><path id="path68" class="cls-5" d="M57.05,210.18h7.61L63,220.29H69.8c4.26,0,7.22.81,8.86,2.42s2.18,4.22,1.6,7.81L77.4,248.25H69.67l2.73-16.87c.31-1.92.16-3.23-.45-3.92s-1.89-1-3.84-1H62l-3.53,21.83H50.89l6.16-38.07" transform="translate(-15.75 -27.49)"/><path id="path70" class="cls-5" d="M88.56,220.29H103.3q6.66,0,9.77,3.78t2,10.55a17.79,17.79,0,0,1-1.6,5.1,16.6,16.6,0,0,1-3,4.23,13.31,13.31,0,0,1-5,3.31,21.69,21.69,0,0,1-7.14,1H91.71l-1.64,10.12H82.4l6.16-38.08Zm6.69,6-2.58,16h4.67c3.09,0,5.38-.64,6.87-1.9s2.48-3.37,3-6.31.19-4.84-.8-6-2.94-1.76-5.85-1.76H95.25" transform="translate(-15.75 -27.49)"/></g><g id="g65"><path id="path72" class="cls-3" d="M128.05,202.08h14.76l6.48,35.41,17.92-35.41h14.7l-7.46,46.14H164.6l6.62-35.94-18.07,35.94H142.48l-6.79-36.31-4.86,36.31H120.6l7.45-46.14" transform="translate(-15.75 -27.49)"/><path id="path74" class="cls-3" d="M199.61,240.76h7.45l4.27-26.42h9.26l-5.33,33q-1.08,6.74-4.86,10t-10.47,3.24H181.78l1.11-6.86h16.56a6.91,6.91,0,0,0,4.3-1.25,5.42,5.42,0,0,0,2-3.61l.09-.57h-8.19q-7.86,0-10.72-3t-1.73-10l3.37-20.89h9.16l-3.27,20.2c-.41,2.55-.29,4.23.38,5s2.25,1.2,4.76,1.2" transform="translate(-15.75 -27.49)"/><path id="path76" class="cls-3" d="M245.52,202.08h10.67l12.92,46.14H257.93l-2.62-11H234.55l-6,11H217.85l27.67-46.14Zm3.46,9.17L239.13,229h14.23L249,211.25" transform="translate(-15.75 -27.49)"/><path id="path78" class="cls-3" d="M304,248.22H286.23q-8.07,0-11.85-4.58t-2.45-12.78a21.41,21.41,0,0,1,1.94-6.17,19.76,19.76,0,0,1,3.69-5.14,16,16,0,0,1,6.13-4,26,26,0,0,1,8.63-1.21h7.94l2-12.26h9.23L304,248.22ZM296,241l3.12-19.32h-5.6q-5.62,0-8.36,2.27c-1.81,1.52-3,4.05-3.58,7.59s-.23,5.87,1,7.31,3.58,2.15,7.09,2.15H296" transform="translate(-15.75 -27.49)"/><path id="path80" class="cls-3" d="M317.54,214.34h35.55q7.74,0,10.67,2.92t1.88,9.48l-3.47,21.48h-9.33l3.29-20.32c.4-2.49.28-4.14-.37-4.93s-2.19-1.2-4.62-1.2H346l-4.27,26.45h-9.47l4.27-26.45H325.66l-4.27,26.45h-9.33l5.48-33.88" transform="translate(-15.75 -27.49)"/><path id="path82" class="cls-3" d="M386.26,210.49h-9.71l1.36-8.41h9.71Zm-6.1,37.73h-9.71l5.48-33.88h9.71l-5.48,33.88" transform="translate(-15.75 -27.49)"/><path id="path84" class="cls-3" d="M393.64,214.34h17.42q7.9,0,10.82,2.87t1.84,9.53l-3.47,21.48H411l3.29-20.39q.62-3.79-.42-4.93c-.69-.75-2.26-1.13-4.71-1.13H401.7l-4.27,26.45h-9.26l5.47-33.88" transform="translate(-15.75 -27.49)"/></g></g></svg>