<svg xmlns="http://www.w3.org/2000/svg" viewBox="0 0 396.85 229.3"><defs><style>.cls-1{fill:#42210b;}.cls-2{fill:#6c78af;}.cls-3{fill:#dd0031;}.cls-4{fill:#c3002f;}.cls-5{fill:#34487f;}</style></defs><title>ai</title><g id="sails"><g id="g5"><path class="cls-1" d="M214.88,122.18c4.54,3.08,15.26,10.18,26.83,16.6a20.32,20.32,0,0,1,12.86-13.07L180.39,4.38a1.91,1.91,0,0,1-.26-1.07l.19-2.64-.23-.45a.57.57,0,0,0-.44-.22l-.45.11c-.22.22-.33.34-.33.56L169.41,171.9a1.8,1.8,0,0,0,1.53-1.68l8.73-159.3a1.8,1.8,0,0,1,3.34-.84L190.89,23h-.11a204.36,204.36,0,0,1,10.62,65.8c10.88.05,18.94,9,19.41,19.5A18.13,18.13,0,0,1,214.88,122.18Z"/><path id="path18" class="cls-2" d="M175.35,67.86c8.65,24.33,17.54,53.31,14.43,101.72l45.5-5.57Z"/><path id="path22" class="cls-2" d="M169.41,171.9l10.26-161c-39,55.17-50,107.58-84.81,160.43l65.1-3.67"/><path id="path24" class="cls-2" d="M105,35.94l-.45-.22-.44.11-.23.56L94.86,181l1.34-.11,9-144.54-.22-.45"/><path id="path26" class="cls-2" d="M97.94,166.61h0L107.5,25.52,57.1,171l40.84-4.34"/></g></g><g id="ang"><polygon class="cls-3" points="156.24 107.82 190.19 109.59 175.35 67.86 156.24 107.82"/><path class="cls-3" d="M178.71,3.45,84,31.75l7.75,123.67,76.52,47.76,81.07-39.53L270,41.46ZM207,157.74,196.84,128l-49.33-2.58L134.3,153.94l-21.67-1.13L177.56,25.52l51.11,133.35Z"/><polygon class="cls-4" points="178.71 3.45 177.56 25.52 177.56 25.52 228.67 158.87 207 157.74 196.84 127.97 172.27 126.68 168.28 203.18 249.35 163.65 269.95 41.46 178.71 3.45"/><polygon class="cls-4" points="175.35 67.86 173.21 108.71 190.19 109.59 175.35 67.86"/></g><g id="ship"><path id="path20" class="cls-5" d="M381.84,141.07q11.67-1.38,15-5L.19,184.45H0c.19,16.49,7.6,29.47,22.06,38.74a47.07,47.07,0,0,0,11.67,6.11,47.84,47.84,0,0,1,12.05-9.82H46q62.28-37.81,184.8-11.86l.93.18c8.89,1.86,17.79,4.08,26.13,6.68a7.24,7.24,0,0,0,6.12-1.86,29.58,29.58,0,0,1,11.68-5v-.19c13.16-23.35,30.95-40.59,53.2-51.9,15.38-7.6,33.17-12.6,53-14.46"/></g></svg>