<?xml version="1.0" encoding="utf-8"?>
<!-- Generator: Adobe Illustrator 23.0.1, SVG Export Plug-In . SVG Version: 6.00 Build 0)  -->
<svg version="1.1" xmlns="http://www.w3.org/2000/svg" xmlns:xlink="http://www.w3.org/1999/xlink" x="0px" y="0px"
	 viewBox="0 0 560 288" style="enable-background:new 0 0 560 288;" xml:space="preserve">
<style type="text/css">
	.st0{fill:#42210B;}
	.st1{fill:#6C78AF;}
	.st2{fill:#DD0031;}
	.st3{fill:#C3002F;}
	.st4{fill:#34487F;}
	.st5{fill:none;stroke:#000000;stroke-width:4;stroke-linecap:round;stroke-linejoin:round;}
	.st6{fill:none;stroke:#000000;stroke-width:3;stroke-linecap:round;stroke-linejoin:round;}
</style>
<g id="sails">
	<g id="g5_1_">
		<path class="st0" d="M366.14,149.67c4.54,3.08,15.26,10.18,26.83,16.6c1.78-6.07,6.85-11.03,12.86-13.08L331.65,31.86
			c-0.2-0.32-0.29-0.69-0.26-1.07l0.18-2.64l-0.22-0.44c-0.11-0.11-0.22-0.22-0.44-0.22l-0.45,0.11c-0.22,0.22-0.33,0.33-0.33,0.56
			l-9.46,171.23c0.84-0.13,1.48-0.83,1.53-1.68l8.73-159.3c0.1-1.77,2.42-2.35,3.34-0.84l7.88,12.95h-0.11
			c7.06,20.79,10.59,42.72,10.62,65.8c10.89,0.05,18.94,8.96,19.41,19.5C372.3,141.16,369.9,146.1,366.14,149.67z"/>
		<path id="path18_1_" class="st1" d="M326.6,95.35c8.65,24.33,17.54,53.31,14.43,101.71l45.51-5.56L326.6,95.35z"/>
		<path id="path22_1_" class="st1" d="M320.66,199.39l10.25-160.99c-39.02,55.17-49.98,107.58-84.8,160.43l65.09-3.67"/>
		<path id="path24_1_" class="st1" d="M256.24,63.43l-0.44-0.22l-0.44,0.11l-0.22,0.56l-9.01,144.65l1.33-0.11l9.01-144.54
			L256.24,63.43"/>
		<path id="path26_1_" class="st1" d="M249.19,194.1L249.19,194.1l9.57-141.09l-50.41,145.43L249.19,194.1"/>
	</g>
</g>
<g id="ang">
	<g>
		<g>
			<g>
				<polygon class="st2" points="307.49,135.31 341.44,137.08 326.6,95.35 				"/>
				<path class="st2" d="M329.96,30.94l-94.71,28.3l7.76,123.67l76.51,47.76l81.07-39.52l20.6-122.19L329.96,30.94z M358.25,185.23
					l-10.16-29.77l-49.33-2.58l-13.21,28.55l-21.67-1.13l64.93-127.29l51.11,133.35L358.25,185.23z"/>
			</g>
			<g>
				<polygon class="st3" points="329.96,30.94 328.81,53.01 328.81,53.01 379.92,186.36 358.25,185.23 348.09,155.45 323.53,154.17 
					319.53,230.67 400.6,191.14 421.21,68.95 				"/>
				<polygon class="st3" points="326.6,95.35 324.46,136.2 341.44,137.08 				"/>
			</g>
		</g>
	</g>
</g>
<g id="ship">
	<path id="path20_1_" class="st4" d="M533.09,168.56c7.78-0.93,12.79-2.59,15.01-5l-396.66,48.38h-0.19
		c0.19,16.5,7.6,29.47,22.06,38.74c3.89,2.78,7.97,4.82,11.68,6.12c3.52-4.08,7.42-7.04,12.05-9.82h0.18
		c41.52-25.21,103.25-29.1,184.8-11.86l0.93,0.18c8.9,1.85,17.79,4.08,26.14,6.67c2.41,0.37,4.45-0.37,6.12-1.85
		c2.97-2.22,6.67-3.89,11.68-5v-0.19c13.16-23.36,30.95-40.59,53.2-51.9C495.46,175.42,513.26,170.42,533.09,168.56"/>
</g>
<g id="text">
	<g>
		<g id="g13_2_">
			<path id="path42_2_" class="st5" d="M305.98,64.77c-5.45-3.34-11.13-2.45-17.02,2.78c-5.12-5.23-10.46-6.12-16.02-2.78"/>
			<path id="path44_2_" class="st6" d="M293.63,46.07c-5.56-3.34-11.02-2-16.58,4.01c-5.45-6.01-11.02-7.34-16.58-4.01"/>
		</g>
		<g id="g33_2_">
			<path id="path66_2_" class="st4" d="M21.91,220.29h14.75c4.43,0,7.69,1.26,9.76,3.78c2.08,2.52,2.75,6.04,2.02,10.55
				c-0.3,1.85-0.83,3.55-1.6,5.09c-0.77,1.55-1.78,2.96-3.04,4.24c-1.5,1.54-3.18,2.64-5.04,3.3c-1.86,0.66-4.24,1-7.13,1h-6.57
				l-1.63,10.11h-7.67L21.91,220.29L21.91,220.29z M28.6,226.31l-2.58,15.97h4.67c3.09,0,5.38-0.63,6.88-1.9
				c1.49-1.26,2.47-3.37,2.95-6.31c0.46-2.84,0.19-4.84-0.8-6.01c-0.99-1.17-2.94-1.75-5.86-1.75H28.6"/>
			<path id="path68_2_" class="st4" d="M57.05,210.18h7.61l-1.63,10.11h6.77c4.26,0,7.22,0.81,8.86,2.42
				c1.65,1.62,2.18,4.22,1.6,7.81l-2.87,17.73h-7.73l2.73-16.88c0.31-1.92,0.16-3.22-0.45-3.92c-0.61-0.69-1.89-1.04-3.83-1.04
				h-6.08l-3.53,21.83h-7.61L57.05,210.18"/>
			<path id="path70_2_" class="st4" d="M88.56,220.29h14.75c4.43,0,7.69,1.26,9.76,3.78c2.08,2.52,2.75,6.04,2.02,10.55
				c-0.3,1.85-0.83,3.55-1.6,5.09c-0.77,1.55-1.78,2.96-3.04,4.24c-1.5,1.54-3.18,2.64-5.04,3.3c-1.86,0.66-4.24,1-7.13,1h-6.57
				l-1.63,10.11H82.4L88.56,220.29L88.56,220.29z M95.25,226.31l-2.58,15.97h4.67c3.09,0,5.38-0.63,6.88-1.9
				c1.49-1.26,2.48-3.37,2.95-6.31c0.46-2.84,0.19-4.84-0.8-6.01c-0.99-1.17-2.94-1.75-5.86-1.75H95.25"/>
		</g>
		<g id="g65_2_">
			<path id="path72_2_" class="st2" d="M128.05,202.08h14.75l6.48,35.41l17.93-35.41h14.7l-7.46,46.14h-9.85l6.62-35.94
				l-18.07,35.94h-10.67l-6.79-36.32l-4.86,36.32H120.6L128.05,202.08"/>
			<path id="path74_2_" class="st2" d="M199.61,240.76h7.45l4.27-26.42h9.26l-5.33,32.97c-0.72,4.48-2.34,7.8-4.86,9.96
				c-2.52,2.16-6,3.24-10.47,3.24h-18.16l1.11-6.86h16.56c1.78,0,3.21-0.42,4.3-1.25c1.09-0.83,1.76-2.03,2.01-3.61l0.09-0.57h-8.2
				c-5.24,0-8.82-1-10.72-3c-1.91-2-2.48-5.33-1.73-10l3.38-20.89h9.15l-3.26,20.2c-0.41,2.56-0.29,4.23,0.38,5.03
				C195.51,240.36,197.1,240.76,199.61,240.76"/>
			<path id="path76_2_" class="st2" d="M245.52,202.08h10.66l12.92,46.14h-11.18l-2.61-10.98h-20.77l-6.03,10.98h-10.66
				L245.52,202.08L245.52,202.08z M248.98,211.25L239.13,229h14.24L248.98,211.25"/>
			<path id="path78_2_" class="st2" d="M304.01,248.22h-17.79c-5.37,0-9.32-1.53-11.84-4.59c-2.52-3.06-3.33-7.32-2.45-12.78
				c0.36-2.24,1.01-4.3,1.94-6.17c0.93-1.87,2.16-3.59,3.69-5.13c1.82-1.86,3.86-3.2,6.13-4c2.27-0.81,5.14-1.21,8.63-1.21h7.94
				l1.98-12.25h9.23L304.01,248.22L304.01,248.22z M295.96,240.96l3.12-19.32h-5.6c-3.76,0-6.54,0.76-8.36,2.28
				c-1.82,1.52-3.01,4.05-3.59,7.59c-0.56,3.44-0.23,5.87,0.98,7.3c1.21,1.43,3.58,2.15,7.09,2.15L295.96,240.96"/>
			<path id="path80_2_" class="st2" d="M317.54,214.34h35.55c5.16,0,8.71,0.97,10.67,2.92c1.96,1.95,2.59,5.11,1.88,9.48
				l-3.47,21.49h-9.33l3.28-20.33c0.4-2.49,0.28-4.14-0.37-4.93c-0.65-0.8-2.19-1.19-4.61-1.19h-5.19l-4.28,26.45h-9.47l4.28-26.45
				h-10.82l-4.28,26.45h-9.33L317.54,214.34"/>
			<path id="path82_2_" class="st2" d="M386.26,210.49h-9.71l1.36-8.4h9.71L386.26,210.49z M380.16,248.22h-9.71l5.48-33.88h9.71
				L380.16,248.22"/>
			<path id="path84_2_" class="st2" d="M393.64,214.34h17.42c5.26,0,8.87,0.96,10.81,2.87c1.94,1.91,2.56,5.09,1.84,9.53
				l-3.47,21.49h-9.26l3.3-20.39c0.41-2.53,0.27-4.18-0.42-4.93c-0.69-0.75-2.26-1.13-4.71-1.13h-7.45l-4.28,26.45h-9.26
				L393.64,214.34"/>
		</g>
	</g>
</g>
</svg>
